<?xml version="1.0" standalone="no"?>
<!DOCTYPE svg PUBLIC "-//W3C//DTD SVG 20010904//EN"
 "http://www.w3.org/TR/2001/REC-SVG-20010904/DTD/svg10.dtd">
<svg version="1.0" xmlns="http://www.w3.org/2000/svg"
 width="265.000000pt" height="265.000000pt" viewBox="0 0 265.000000 265.000000"
 preserveAspectRatio="xMidYMid meet">
<metadata>
Created by potrace 1.11, written by Peter Selinger 2001-2013
</metadata>
<g transform="translate(0.000000,265.000000) scale(0.100000,-0.100000)"
fill="#000000" stroke="none">
<path d="M1210 2643 c-427 -48 -781 -262 -1002 -608 -211 -329 -263 -755 -137
-1128 179 -530 685 -897 1239 -897 221 -1 409 44 605 142 382 191 656 574 713
998 13 96 6 329 -12 422 -78 405 -338 750 -704 933 -179 90 -365 135 -566 139
-61 1 -122 0 -136 -1z m351 -126 c426 -94 759 -384 903 -785 86 -240 90 -533
11 -776 -210 -642 -892 -987 -1540 -779 -104 33 -288 131 -352 187 -7 6 -36
31 -65 56 -194 163 -338 419 -392 696 -22 115 -16 370 12 485 75 305 245 552
508 736 123 86 340 170 489 189 28 3 52 8 54 9 11 11 306 -4 372 -18z"/>
<path d="M689 2045 c0 -11 0 -202 0 -425 0 -395 3 -438 35 -588 4 -18 1 -22
-12 -18 -59 17 -69 17 -75 -1 -3 -10 -21 -62 -41 -116 l-35 -98 27 -10 c33
-13 252 -69 269 -69 7 0 43 -30 80 -68 38 -37 101 -89 140 -115 69 -46 217
-117 243 -117 27 0 166 66 236 111 42 28 106 79 142 116 l67 65 130 33 c147
38 188 52 183 63 -2 4 -21 56 -42 116 -38 104 -40 107 -65 101 -63 -16 -60
-20 -44 53 7 37 16 94 20 127 4 46 8 775 4 845 -1 13 -78 15 -631 15 -628 1
-630 1 -631 -20z m191 -94 c0 -5 -6 -11 -13 -14 -8 -3 -12 -19 -11 -38 3 -54
4 -55 19 -35 13 17 15 18 21 2 9 -24 0 -29 -42 -22 l-36 7 7 45 c4 28 3 44 -4
44 -6 0 -11 5 -11 10 0 6 16 10 35 10 19 0 35 -4 35 -9z m377 -33 c-3 -54 -10
-65 -39 -62 -13 1 -29 3 -37 3 -8 1 -12 4 -8 7 3 3 0 26 -8 50 l-13 44 54 0
54 0 -3 -42z m163 12 c14 -34 30 -40 30 -10 0 11 -4 20 -10 20 -5 0 -10 5 -10
10 0 6 9 10 20 10 17 0 20 -7 20 -49 0 -32 -5 -51 -13 -54 -18 -7 -28 1 -55
43 -21 32 -23 33 -20 10 2 -14 10 -30 18 -37 17 -14 17 -14 -28 -17 -25 -1
-31 2 -27 14 14 50 16 70 6 70 -6 0 -11 5 -11 10 0 6 15 10 34 10 28 0 36 -5
46 -30z m144 18 c-10 -16 -14 -60 -8 -80 5 -18 24 -20 36 -4 3 5 16 11 27 13
15 2 19 -1 14 -13 -13 -35 -84 -39 -110 -6 -18 23 -16 46 8 76 20 25 47 37 33
14z m41 2 c3 -5 2 -10 -4 -10 -5 0 -13 5 -16 10 -3 6 -2 10 4 10 5 0 13 -4 16
-10z m35 -10 c0 -11 -6 -20 -14 -20 -9 0 -12 7 -9 20 3 11 9 20 14 20 5 0 9
-9 9 -20z m190 11 c0 -5 -5 -11 -11 -13 -18 -6 -18 -61 -1 -80 8 -10 11 -19 6
-19 -42 -6 -56 -4 -63 9 -5 8 -15 13 -23 9 -29 -10 -39 7 -26 43 8 26 9 35 0
38 -32 10 -5 22 53 22 36 0 65 -4 65 -9z m-762 -57 c23 -47 23 -56 -3 -60 -17
-3 -20 12 -5 21 17 10 1 25 -23 21 -12 -3 -26 -5 -32 -6 -5 0 -1 -7 9 -15 18
-14 18 -15 2 -15 -9 0 -26 4 -36 10 -18 9 -18 11 3 50 30 55 56 54 85 -6z
m736 -411 c-2 -304 -9 -355 -60 -470 -16 -37 -23 -43 -59 -49 -193 -33 -407
-45 -545 -30 -179 20 -246 30 -256 40 -12 11 -32 85 -55 196 -10 52 -21 576
-12 593 2 4 226 7 497 7 l493 0 -3 -287z m121 -563 c-7 -60 -37 -112 -53 -94
-4 3 -1 9 6 11 18 7 15 27 -8 48 -27 24 -25 43 5 51 14 3 22 11 18 17 -6 10
26 41 35 33 2 -3 1 -33 -3 -66z m-1134 2 c0 -4 3 -16 5 -27 3 -11 8 -37 11
-59 6 -37 5 -38 -16 -27 -22 12 -29 31 -11 31 15 0 12 19 -4 36 -11 11 -17 11
-22 2 -4 -6 -2 -14 4 -16 20 -6 14 -19 -12 -26 -13 -3 -31 -9 -40 -12 -25 -10
-19 18 13 62 26 34 69 56 72 36z m864 -41 c6 -1 17 -18 25 -38 l14 -38 6 39
c4 35 8 39 33 41 24 1 29 -4 38 -40 5 -22 12 -46 14 -52 3 -9 -11 -13 -50 -13
-50 0 -56 2 -70 30 -9 17 -18 30 -21 30 -2 0 0 -9 6 -19 16 -31 12 -41 -17
-41 -14 0 -24 3 -20 6 3 3 -1 23 -8 44 -14 41 -6 60 23 55 10 -2 22 -4 27 -4z
m-489 -87 c3 -23 4 -46 1 -51 -7 -12 -48 -9 -72 5 -50 28 -49 28 -19 71 47 66
77 58 90 -25z m-174 46 c19 -17 19 -20 5 -20 -9 0 -17 5 -17 10 0 17 -26 11
-45 -10 -10 -11 -15 -28 -12 -40 6 -22 -3 -26 -21 -8 -16 16 -15 39 4 66 19
28 58 29 86 2z m324 -64 c17 -7 28 16 21 44 -6 24 15 27 32 6 16 -19 17 -76 2
-85 -13 -9 -81 -5 -90 5 -3 4 0 9 7 11 9 3 6 12 -9 31 -19 25 -20 27 -2 40 16
12 18 10 21 -17 2 -16 10 -32 18 -35z m214 20 c0 -42 -1 -44 -37 -49 -42 -7
-52 1 -47 41 1 15 -4 31 -14 39 -14 10 -8 12 41 13 l57 0 0 -44z m-530 -25 c0
-9 -23 -21 -41 -21 -4 0 -6 7 -3 15 7 16 44 21 44 6z m200 -87 c30 -4 115 -8
187 -8 73 -1 133 -4 133 -8 0 -5 -79 -55 -142 -89 -27 -14 -55 -11 -101 12
-91 45 -195 121 -144 104 6 -2 37 -7 67 -11z"/>
<path d="M1194 1910 c1 -17 5 -30 9 -31 19 -1 28 8 32 34 5 23 2 27 -18 27
-20 0 -24 -5 -23 -30z"/>
<path d="M1740 1930 c0 -5 12 -10 26 -10 14 0 23 4 19 10 -3 6 -15 10 -26 10
-10 0 -19 -4 -19 -10z"/>
<path d="M1740 1892 c0 -4 40 -42 45 -42 1 0 1 10 0 23 -1 15 -8 22 -23 23
-12 1 -22 -1 -22 -4z"/>
<path d="M1027 1909 c4 -13 8 -18 11 -10 2 7 -1 18 -6 23 -8 8 -9 4 -5 -13z"/>
<path d="M1118 1622 c-34 -4 -41 -42 -8 -42 19 0 20 -7 20 -255 0 -140 -3
-254 -7 -254 -22 4 -33 -3 -33 -20 0 -19 9 -20 230 -19 l230 0 1 27 c4 76 -2
106 -24 123 -24 19 -57 24 -57 8 0 -5 -16 -10 -36 -10 -21 0 -33 4 -29 10 11
18 -32 10 -59 -11 l-26 -20 0 41 c0 26 8 53 20 70 18 26 20 37 13 107 -12 125
-9 158 21 203 14 22 25 40 24 41 -10 2 -258 3 -280 1z"/>
<path d="M1397 1565 c-18 -18 -11 -52 13 -65 13 -7 24 -5 41 9 21 16 22 22 11
45 -13 29 -42 34 -65 11z"/>
<path d="M1407 1436 c-7 -18 24 -31 34 -14 4 6 5 16 3 20 -8 13 -31 9 -37 -6z"/>
<path d="M1895 920 c3 -5 8 -10 11 -10 2 0 4 5 4 10 0 6 -5 10 -11 10 -5 0 -7
-4 -4 -10z"/>
<path d="M1116 815 c-3 -8 -1 -15 4 -15 6 0 10 7 10 15 0 8 -2 15 -4 15 -2 0
-6 -7 -10 -15z"/>
<path d="M1090 770 c0 -5 9 -10 20 -10 11 0 20 5 20 10 0 6 -9 10 -20 10 -11
0 -20 -4 -20 -10z"/>
<path d="M1490 800 c0 -11 5 -20 10 -20 6 0 10 9 10 20 0 11 -4 20 -10 20 -5
0 -10 -9 -10 -20z"/>
<path d="M2045 1212 c-33 -14 -61 -27 -63 -28 -7 -4 -30 -119 -26 -126 3 -5
13 -4 23 2 16 8 21 3 36 -35 9 -25 21 -47 25 -50 12 -7 155 52 170 70 8 10 0
19 -38 43 -48 29 -49 31 -50 79 0 87 8 82 -77 45z"/>
<path d="M499 1207 c0 -7 -1 -34 -1 -62 -1 -49 -2 -51 -50 -79 -27 -15 -48
-30 -46 -32 9 -8 173 -62 179 -58 4 2 15 25 25 49 17 45 17 45 42 29 23 -15
25 -15 19 1 -4 9 -10 34 -13 56 -7 45 -7 45 -91 81 -40 16 -63 22 -64 15z"/>
</g>
</svg>
